# xmcd
#
# Track frame offsets:
#	150
#	12916
#	26539
#	38488
#	52846
#	63483
#	82102
#	96877
#	107947
#	124381
#	137842
#
# Disc length: 1996 seconds
#
# Revision: 1
# Processed by: cddbd v1.5.2PL0 Copyright (c) Steve Scherf et al.
# Submitted via: audiograbber 1.83.01
#
DISCID=9007ca0b
DTITLE=Jim Stafford - New Deal
DYEAR=1900
DGENRE=
TTITLE0=Coyote On A Barbed Wire Fence
TTITLE1=Just Plain Folks
TTITLE2=Rolling Around Up In Heaven
TTITLE3=Talk That Guitar
TTITLE4=Down South
TTITLE5=Gamble And Chance
TTITLE6=Hurricane Laverne
TTITLE7=If Things Could Talk
TTITLE8=Don't Forget The Hard Times
TTITLE9=Leave Your Whiskey Be
TTITLE10=Driving Back To Boulder
EXTD=
EXTT0=
EXTT1=
EXTT2=
EXTT3=
EXTT4=
EXTT5=
EXTT6=
EXTT7=
EXTT8=
EXTT9=
EXTT10=
PLAYORDER=
